<svg width="500" height="300" viewBox="0 0 500 300" fill="none" xmlns="http://www.w3.org/2000/svg">
<rect width="500" height="300" fill="#A5AFFB"/>
<path d="M290.56 184.709C290.494 177.384 292.379 170.174 296.02 163.819C299.344 157.9 304.585 153.29 310.88 150.749L313.35 149.829V128.829C313.366 118.1 310.665 107.542 305.5 98.1387C305.806 84.8208 305.415 71.496 304.33 58.2188C298.877 65.3291 291.845 71.0738 283.79 74.9987C273.548 68.4962 261.667 65.0432 249.535 65.0432C237.403 65.0432 225.522 68.4962 215.28 74.9987C207.213 71.0842 200.172 65.338 194.72 58.2188C193.617 71.4984 193.21 84.8266 193.5 98.1488C188.317 107.561 185.606 118.134 185.62 128.879V149.879L188.09 150.799C194.385 153.334 199.644 157.913 203.02 163.799C206.736 170.144 208.667 177.376 208.61 184.729C208.61 190.579 206.79 198.229 205.09 203.429C204.85 204.159 204.56 204.999 204.23 205.889C210.168 211.852 217.227 216.582 225 219.807C232.773 223.032 241.106 224.688 249.522 224.681C257.937 224.673 266.268 223.002 274.035 219.763C281.802 216.525 288.853 211.782 294.78 205.809C294.5 205.039 294.23 204.229 293.96 203.389C292.33 198.179 290.56 190.609 290.56 184.709Z" fill="#3D4962"/>
<path d="M185.879 156.734C185.879 156.734 183.109 186.444 191.379 209.524C191.869 210.894 192.469 211.524 193.129 211.524C196.749 211.524 202.249 193.594 202.249 184.734C202.249 171.434 195.219 160.244 185.879 156.734Z" fill="#6463EA"/>
<path d="M296.939 184.711C296.939 193.571 302.299 211.501 305.879 211.501C306.539 211.501 307.129 210.891 307.619 209.501C315.889 186.421 313.119 156.711 313.119 156.711C303.779 160.241 296.939 171.431 296.939 184.711Z" fill="#6463EA"/>
<path d="M278.229 156.733C283.567 156.731 288.799 155.242 293.338 152.433C297.877 149.624 301.544 145.606 303.927 140.83C306.31 136.053 307.315 130.708 306.83 125.392C306.345 120.076 304.388 115 301.18 110.734C297.971 106.468 293.637 103.181 288.665 101.24C283.692 99.299 278.277 98.7818 273.027 99.7464C267.777 100.711 262.9 103.119 258.942 106.701C254.984 110.282 252.102 114.896 250.619 120.023H248.379C246.897 114.896 244.015 110.282 240.057 106.701C236.099 103.119 231.221 100.711 225.971 99.7464C220.721 98.7818 215.306 99.299 210.334 101.24C205.361 103.181 201.028 106.468 197.819 110.734C194.611 115 192.654 120.076 192.169 125.392C191.684 130.708 192.689 136.053 195.072 140.83C197.455 145.606 201.122 149.624 205.661 152.433C210.2 155.242 215.431 156.731 220.769 156.733H278.229ZM278.229 120.263C282.639 120.263 286.229 124.483 286.229 128.883C286.229 133.283 282.659 137.503 278.229 137.503C273.799 137.503 270.229 133.293 270.229 128.883C270.229 124.473 273.819 120.263 278.229 120.263ZM249.499 128.883L257.499 136.883L249.499 153.613L241.499 136.843L249.499 128.883ZM212.789 128.883C212.789 124.483 216.359 120.263 220.789 120.263C225.219 120.263 228.789 124.483 228.789 128.883C228.789 133.283 225.219 137.503 220.789 137.503C216.359 137.503 212.789 133.293 212.789 128.883V128.883Z" fill="#F4F5F7"/>
<path d="M257.48 136.863L249.5 128.883L241.52 136.863L249.5 153.633L257.48 136.863Z" fill="#F6B239"/>
<path d="M220.769 137.506C225.176 137.506 228.749 133.646 228.749 128.886C228.749 124.125 225.176 120.266 220.769 120.266C216.362 120.266 212.789 124.125 212.789 128.886C212.789 133.646 216.362 137.506 220.769 137.506Z" fill="#1C1C1C"/>
<path d="M278.229 137.506C282.636 137.506 286.209 133.646 286.209 128.886C286.209 124.125 282.636 120.266 278.229 120.266C273.822 120.266 270.249 124.125 270.249 128.886C270.249 133.646 273.822 137.506 278.229 137.506Z" fill="#1C1C1C"/>
<path d="M232.849 225.783H232.629C230.279 225.673 228.409 226.553 228.629 228.503C229.119 233.193 228.779 234.553 226.629 238.643C232.309 241.613 239.299 226.923 232.849 225.783Z" fill="#F6B239"/>
<path d="M216.309 222.87H216.089C209.649 221.73 211.199 237.87 217.579 237.05C216.939 232.46 217.089 231.05 219.159 226.83C220.019 225.03 218.559 223.61 216.309 222.87Z" fill="#F6B239"/>
<path d="M220.5 227.131C220.58 228.641 219.73 238.261 221.89 238.641C224.05 239.021 226.97 229.951 227.35 228.471C228.5 223.921 220.3 222.741 220.5 227.131Z" fill="#F6B239"/>
<path d="M283.03 222.831H282.81C280.56 223.531 279.1 225.001 279.97 226.761C282.04 231.001 282.18 232.391 281.54 236.981C287.92 237.851 289.5 221.691 283.03 222.831Z" fill="#F6B239"/>
<path d="M270.499 228.464C270.709 226.514 268.839 225.634 266.499 225.744H266.279C259.839 226.884 266.819 241.534 272.529 238.564C270.349 234.514 270.009 233.154 270.499 228.464Z" fill="#F6B239"/>
<path d="M271.909 228.309C272.499 229.699 274.999 239.029 277.159 238.649C279.319 238.269 278.959 228.749 278.799 227.219C278.319 222.609 270.199 224.259 271.909 228.309Z" fill="#F6B239"/>
<path d="M234.7 174.03L233.04 173.07L229.41 179.36H222.7L219.07 173.07L217.41 174.03L221.59 181.28H230.51L234.7 174.03Z" fill="#F4F5F7"/>
<path d="M246.141 179.36L242.511 173.07L240.851 174.03L245.041 181.28H253.961L258.141 174.03L256.481 173.07L252.851 179.36H246.141Z" fill="#F4F5F7"/>
<path d="M246.42 187.333L244.76 186.383L241.13 192.663H234.42L230.79 186.383L229.13 187.333L233.32 194.583H242.24L246.42 187.333Z" fill="#F4F5F7"/>
<path d="M264.57 192.663H257.87L254.24 186.383L252.58 187.333L256.76 194.583H265.68L269.87 187.333L268.21 186.383L264.57 192.663Z" fill="#F4F5F7"/>
<path d="M276.3 179.36H269.59L265.96 173.07L264.3 174.03L268.48 181.28H277.4L281.59 174.03L279.93 173.07L276.3 179.36Z" fill="#F4F5F7"/>
<path d="M252.851 206.204H246.141L242.511 199.914L240.851 200.874L245.041 208.124H253.961L258.141 200.874L256.481 199.914L252.851 206.204Z" fill="#F4F5F7"/>
</svg>
